<?xml version="1.0" encoding="UTF-8"?>
<!DOCTYPE svg PUBLIC "-//W3C//DTD SVG 1.1//EN" "http://www.w3.org/Graphics/SVG/1.1/DTD/svg11.dtd">
<svg width="239mm" height="90mm" viewBox="0 0 23900 9000" version="1.1" xmlns="http://www.w3.org/2000/svg" stroke-width="28.222" stroke-linejoin="round" xml:space="preserve">
 <path fill="rgb(255,255,255)" stroke="none" d="M 11964,9006 L -6,9006 -6,0 23934,0 23934,9006 11964,9006 Z"/>
 <path fill="none" stroke="rgb(0,0,0)" stroke-width="51" stroke-linejoin="round" d="M 11964,8826 L 472,8826 472,180 23456,180 23456,8826 11964,8826 Z"/>
 <path fill="none" stroke="rgb(0,0,0)" stroke-width="51" stroke-linejoin="round" d="M 472,8825 L 622,8825"/>
 <path fill="none" stroke="rgb(0,0,0)" stroke-width="51" stroke-linejoin="round" d="M 472,8825 L 622,8825"/>
 <path fill="none" stroke="rgb(0,0,0)" stroke-width="51" stroke-linejoin="round" d="M 472,6354 L 622,6354"/>
 <path fill="none" stroke="rgb(0,0,0)" stroke-width="51" stroke-linejoin="round" d="M 472,6354 L 622,6354"/>
 <path fill="none" stroke="rgb(0,0,0)" stroke-width="51" stroke-linejoin="round" d="M 472,3884 L 622,3884"/>
 <path fill="none" stroke="rgb(0,0,0)" stroke-width="51" stroke-linejoin="round" d="M 472,3884 L 622,3884"/>
 <path fill="none" stroke="rgb(0,0,0)" stroke-width="51" stroke-linejoin="round" d="M 472,1414 L 622,1414"/>
 <path fill="none" stroke="rgb(0,0,0)" stroke-width="51" stroke-linejoin="round" d="M 472,1414 L 622,1414"/>
 <path fill="none" stroke="rgb(0,0,0)" stroke-width="51" stroke-linejoin="round" d="M 472,8825 L 472,178"/>
 <path fill="none" stroke="rgb(0,0,0)" stroke-width="51" stroke-linejoin="round" d="M 23456,8825 L 23306,8825"/>
 <path fill="none" stroke="rgb(0,0,0)" stroke-width="51" stroke-linejoin="round" d="M 23456,8825 L 23306,8825"/>
 <path fill="none" stroke="rgb(0,0,0)" stroke-width="51" stroke-linejoin="round" d="M 23456,6663 L 23306,6663"/>
 <path fill="none" stroke="rgb(0,0,0)" stroke-width="51" stroke-linejoin="round" d="M 23456,6663 L 23306,6663"/>
 <path fill="none" stroke="rgb(0,0,0)" stroke-width="51" stroke-linejoin="round" d="M 23456,4502 L 23306,4502"/>
 <path fill="none" stroke="rgb(0,0,0)" stroke-width="51" stroke-linejoin="round" d="M 23456,4502 L 23306,4502"/>
 <path fill="none" stroke="rgb(0,0,0)" stroke-width="51" stroke-linejoin="round" d="M 23456,2340 L 23306,2340"/>
 <path fill="none" stroke="rgb(0,0,0)" stroke-width="51" stroke-linejoin="round" d="M 23456,2340 L 23306,2340"/>
 <path fill="none" stroke="rgb(0,0,0)" stroke-width="51" stroke-linejoin="round" d="M 23456,179 L 23306,179"/>
 <path fill="none" stroke="rgb(0,0,0)" stroke-width="51" stroke-linejoin="round" d="M 23456,179 L 23306,179"/>
 <path fill="none" stroke="rgb(0,0,0)" stroke-width="51" stroke-linejoin="round" d="M 23456,8825 L 23456,179"/>
 <path fill="none" stroke="rgb(0,0,0)" stroke-width="80" stroke-linejoin="round" d="M 472,5395 L 562,5420 652,5407 742,5395 832,5344 922,5369 1012,5331 1103,5331 1193,5331 1283,5203 1373,5127 1463,5139 1553,5139 1643,5139 1734,5164 1824,5164 1914,5139 2004,5164 2094,5126 2184,5113 2274,5113 2365,5062 2455,5024 2545,4590 2635,3954 2725,4235 2815,4247 2905,5074 2996,5163 3086,5150 3176,5265 3266,5189 3356,5227 3446,5074 3536,4959 3627,4997 3717,5507 3807,5634 3897,5723 3987,5787 4077,5774 4167,5825 4258,5735 4348,5812 4438,5710 4528,5812 4618,5735 4708,5697 4799,5735 4889,5811 4979,5748 5069,5811 5159,5773 5249,5722 5339,5722 5430,5722 5520,5683 5610,5543 5700,5569 5790,5645 5880,5607 5970,5517 6061,5454 6151,5301 6241,5186 6331,5033 6421,4944 6511,4880 6601,4816 6692,4829 6782,4727 6872,4612 6962,4498 7052,4358 7142,4141 7232,4103 7323,3644 7413,3466 7503,3555 7593,3772 7683,4230 7773,3822 7863,3733 7954,3644 8044,4102 8134,4535 8224,4497 8314,4662 8404,4649 8494,4649 8585,4674 8675,4610 8765,4610 8855,4446 8945,4305 9035,4484 9126,4992 9216,5323 9306,5221 9396,5374 9486,5119 9576,5501 9666,5412 9757,5399 9847,5437 9937,5450 10027,5488 10117,5424 10207,5322 10297,5335 10388,5730 10478,5475 10568,5628 10658,5551 10748,5640 10838,5589 10928,5577 11019,5577 11109,5436 11199,5334 11289,5092 11379,5041 11469,4914 11559,4850 11650,4722 11740,4646 11830,4544 11920,4659 12009,4582 12099,4684 12189,4760 12280,4786 12370,4862 12460,4849 12550,4925 12640,4938 12730,4925 12821,4925 12911,4900 13001,4938 13091,4989 13181,5078 13271,5027 13361,5052 13452,5052 13542,5090 13632,5052 13722,5052 13812,5090 13902,5052 13992,5077 14083,5090 14173,5051 14263,5293 14353,5153 14443,5242 14533,5204 14623,5229 14714,5217 14804,5178 14894,5114 14984,5000 15074,5153 15164,5000 15254,5127 15345,5203 15435,5165 15525,5241 15615,5178 15705,5190 15795,5190 15885,5165 15976,5164 16066,5164 16156,5126 16246,5126 16336,5075 16426,5037 16516,4960 16607,4935 16697,4833 16787,4845 16877,4960 16967,5074 17057,5240 17148,5329 17238,5444 17328,5533 17418,5609 17508,5673 17598,5736 17688,5685 17779,5596 17869,5813 17959,5838 18049,5863 18139,5889 18229,5850 18319,5876 18410,5812 18500,5697 18590,5634 18680,5608 18770,5595 18860,5442 18950,5187 19041,5098 19131,5162 19221,5365 19311,5391 19401,5302 19491,5301 19581,5187 19672,5187 19762,5034 19852,4550 19942,4474 20032,4651 20122,4868 20212,5250 20303,5097 20393,5364 20483,5288 20573,5390 20663,5313 20753,5326 20844,5415 20934,5351 21024,5453 21114,5427 21204,5504 21294,5555 21384,5656 21475,5618 21565,5631 21655,5554 21745,5491 21835,5414 21925,5401 22015,5286 22106,5006 22196,4853 22286,5019 22376,4802 22466,4789 22556,4700 22646,4623 22737,4534 22827,4497 22917,4509 23007,4331 23097,4102 23187,4178 23277,4521 23368,4331 23456,4529"/>
 <path fill="none" stroke="rgb(0,0,0)" stroke-width="80" stroke-linejoin="round" d="M 472,4322 L 562,4221 652,4574 742,4400 832,4496 922,4496 1012,4618 1103,4674 1193,4743 1283,4769 1373,4769 1463,4747 1553,4972 1643,5056 1734,5174 1824,5375 1914,5482 2004,5617 2094,5626 2184,5652 2274,5687 2365,5729 2455,5643 2545,5604 2635,5327 2725,5116 2815,5447 2905,5356 2996,5376 3086,5362 3176,5178 3266,5144 3356,5281 3446,5361 3536,5356 3627,5501 3717,5549 3807,5688 3897,5796 3987,5915 4077,6014 4167,6106 4258,6149 4348,6185 4438,6086 4528,6180 4618,6196 4708,6191 4799,6268 4889,6248 4979,6181 5069,6408 5159,6165 5249,6289 5339,6169 5430,6009 5520,5969 5610,5935 5700,5689 5790,5377 5880,5155 5970,5354 6061,4854 6151,4703 6241,4795 6331,4683 6421,4578 6511,4503 6601,4232 6692,4235 6782,4606 6872,4482 6962,4835 7052,4848 7142,5100 7232,5146 7323,5220 7413,5327 7503,5338 7593,5443 7683,5393 7773,5405 7863,5286 7954,5176 8044,5098 8134,5191 8224,5178 8314,5097 8404,4890 8494,4831 8585,5114 8675,4960 8765,4864 8855,4577 8945,4701 9035,4988 9126,4977 9216,5252 9306,5125 9396,5140 9486,4914 9576,4642 9666,4805 9757,4896 9847,4726 9937,4784 10027,4642 10117,4650 10207,4647 10297,4705 10388,4616 10478,4526 10568,4533 10658,4522 10748,4638 10838,4607 10928,4712 11019,4580 11109,4366 11199,4177 11289,4536 11379,4703 11469,4704 11559,4787 11650,4689 11740,4799 11830,4659 11920,4729 12009,4654 12099,4686 12189,4657 12280,4653 12370,4748 12460,4713 12550,4822 12640,4726 12730,4772 12821,4765 12911,4565 13001,4542 13091,4597 13181,4634 13271,4723 13361,4821 13452,4891 13542,4933 13632,5036 13722,5155 13812,5228 13902,5389 13992,5288 14083,5262 14173,5311 14263,5497 14353,5488 14443,5510 14533,5464 14623,5339 14714,5077 14804,5284 14894,5069 14984,5169 15074,5087 15164,5003 15254,4982 15345,4863 15435,4847 15525,4777 15615,4741 15705,4656 15795,4520 15885,4230 15976,4034 16066,3879 16156,3457 16246,4068 16336,3840 16426,4104 16516,4107 16607,4220 16697,4246 16787,4214 16877,4419 16967,4372 17057,4488 17148,4465 17238,4515 17328,4436 17418,4161 17508,4367 17598,4360 17688,4093 17779,4396 17869,4373 17959,4782 18049,4849 18139,4765 18229,5054 18319,5306 18410,5590 18500,5551 18590,5699 18680,5609 18770,5668 18860,5645 18950,5482 19041,5680 19131,5557 19221,5810 19311,6214 19401,6077 19491,6288 19581,6382 19672,6203 19762,6160 19852,6052 19942,6000 20032,6000 20122,5973 20212,5887 20303,5675 20393,5658 20483,5847 20573,5681 20663,5780 20753,5582 20844,5603 20934,5488 21024,5311 21114,5250 21204,5224 21294,5421 21384,5783 21475,5682 21565,5696 21655,5386 21745,5154 21835,5548 21925,5473 22015,5520 22106,5431 22196,5366 22286,5337 22376,5221 22466,5188 22556,5073 22646,5002 22737,4916 22827,4922 22917,4749 23007,4725 23097,5301 23187,5497 23277,5577 23368,5640 23456,5642"/>
 <path fill="none" stroke="rgb(0,0,0)" stroke-width="80" stroke-linejoin="round" d="M 472,1807 L 562,1989 652,1769 742,1725 832,1601 922,1512 1012,2067 1103,2166 1193,2548 1283,3239 1373,3463 1463,4135 1553,4244 1643,4880 1734,6004 1824,6088 1914,6543 2004,6311 2094,6111 2184,6296 2274,6274 2365,6322 2455,5860 2545,5580 2635,4858 2725,4187 2815,4407 2905,4032 2996,4048 3086,4061 3176,3946 3266,4052 3356,3781 3446,3826 3536,4292 3627,4286 3717,4455 3807,4417 3897,4512 3987,4789 4077,4592 4167,4488 4258,4495 4348,4240 4438,4091 4528,4365 4618,4241 4708,4505 4799,4874 4889,4954 4979,5162 5069,5041 5159,5175 5249,5835 5339,6692 5430,7469 5520,7953 5610,8008 5700,7110 5790,6661 5880,6095 5970,5808 6061,5888 6151,5729 6241,5997 6331,6026 6421,6122 6511,6336 6601,6336 6692,6323 6782,5970 6872,5639 6962,5850 7052,5783 7142,5631 7232,5797 7323,5851 7413,6119 7503,6419 7593,6260 7683,6728 7773,6868 7863,7206 7954,7054 8044,7439 8134,7510 8224,7157 8314,7186 8404,6578 8494,6275 8585,5941 8675,5168 8765,4038 8855,3867 8945,3507 9035,3243 9126,3291 9216,2995 9306,3069 9396,3397 9486,3410 9576,3621 9666,3443 9757,3468 9847,3637 9937,3622 10027,3820 10117,4240 10207,4781 10297,5230 10388,5498 10478,5884 10568,6451 10658,6499 10748,6359 10838,6143 10928,6089 11019,6093 11109,5551 11199,5386 11289,5281 11379,5756 11469,6104 11559,6031 11650,6757 11740,6181 11830,5891 11920,5850 12009,5421 12099,5138 12189,4842 12280,4852 12370,4626 12460,4359 12550,4353 12640,4475 12730,4386 12821,4509 12911,4570 13001,4730 13091,5243 13181,6259 13271,6963 13361,7190 13452,7473 13542,7404 13632,7512 13722,7334 13812,7331 13902,7612 13992,7224 14083,6896 14173,6657 14263,6199 14353,6403 14443,6422 14533,6385 14623,6716 14714,6751 14804,6373 14894,5717 14984,5055 15074,4839 15164,4899 15254,4909 15345,4954 15435,5091 15525,5232 15615,5200 15705,5287 15795,5312 15885,5485 15976,5848 16066,6320 16156,6517 16246,6413 16336,6512 16426,5512 16516,5273 16607,4834 16697,4519 16787,4383 16877,3842 16967,3438 17057,3295 17148,3085 17238,2996 17328,2952 17418,3147 17508,3513 17598,4103 17688,4739 17779,5268 17869,6463 17959,7371 18049,7154 18139,7346 18229,6852 18319,6184 18410,5748 18500,5337 18590,5229 18680,5210 18770,5354 18860,5444 18950,5785 19041,5973 19131,5986 19221,6250 19311,6168 19401,5703 19491,5439 19581,5150 19672,4787 19762,4854 19852,5558 19942,6151 20032,6142 20122,6699 20212,6709 20303,6952 20393,7579 20483,7500 20573,7290 20663,7166 20753,6724 20844,5409 20934,4455 21024,4079 21114,3770 21204,3484 21294,3086 21384,3189 21475,3144 21565,3008 21655,2986 21745,2597 21835,2158 21925,1811 22015,1866 22106,1844 22196,1838 22286,2083 22376,2392 22466,2348 22556,2931 22646,3190 22737,4142 22827,5673 22917,6237 23007,6811 23097,5295 23187,4096 23277,3561 23368,2908 23456,2719"/>
</svg>